# Blender v2.93.1 OBJ File: ''
# www.blender.org
mtllib caminho.mtl
o meu_terreno.001_meu_terreno.003
v 2.000000 -0.000000 13.623523
v -9.000000 0.000000 13.623523
v -9.000000 0.000000 9.623523
v 2.000000 -0.000000 9.623523
v -2.000000 -0.000000 13.618252
v -2.000000 0.000000 2.618251
v 2.000000 0.000000 2.618251
v 2.000000 -0.000000 13.618252
vt -5.000000 5.000000
vt -5.000000 -5.000000
vt 5.000000 -5.000000
vt 5.000000 5.000000
vt -5.000000 5.000000
vt -5.000000 -5.000000
vt 5.000000 -5.000000
vt 5.000000 5.000000
vn -0.0000 -1.0000 0.0000
usemtl Default_OBJ
s off
f 1/1/1 2/2/1 3/3/1
f 1/1/1 3/3/1 4/4/1
f 5/5/1 6/6/1 7/7/1
f 5/5/1 7/7/1 8/8/1
